<svg xmlns="http://www.w3.org/2000/svg" viewBox="0 0 1200 630" width="1200" height="630">
  <defs>
    <radialGradient id="bg" cx="50%" cy="40%" r="70%">
      <stop offset="0%" stop-color="#1a1340"/>
      <stop offset="55%" stop-color="#0a0b1a"/>
      <stop offset="100%" stop-color="#030508"/>
    </radialGradient>
    <linearGradient id="gold" x1="0" y1="0" x2="1" y2="1">
      <stop offset="0%" stop-color="#ffd86b"/>
      <stop offset="100%" stop-color="#f0a030"/>
    </linearGradient>
    <filter id="glow" x="-30%" y="-30%" width="160%" height="160%">
      <feGaussianBlur stdDeviation="12"/>
    </filter>
  </defs>
  <rect width="1200" height="630" fill="url(#bg)"/>
  <g opacity="0.55">
    <circle cx="120" cy="110" r="1.8" fill="#fff"/>
    <circle cx="260" cy="70" r="1.2" fill="#fff"/>
    <circle cx="980" cy="90" r="2.2" fill="#fff"/>
    <circle cx="1100" cy="170" r="1.5" fill="#fff"/>
    <circle cx="440" cy="140" r="1.3" fill="#fff"/>
    <circle cx="760" cy="50" r="1.8" fill="#fff"/>
    <circle cx="60" cy="260" r="1.3" fill="#fff"/>
    <circle cx="1150" cy="350" r="1.6" fill="#fff"/>
    <circle cx="1080" cy="520" r="1.4" fill="#fff"/>
    <circle cx="150" cy="540" r="1.7" fill="#fff"/>
    <circle cx="330" cy="580" r="1.2" fill="#fff"/>
  </g>
  <g transform="translate(180 245)">
    <polygon points="70,0 86,48 138,48 96,78 112,128 70,98 28,128 44,78 2,48 54,48"
             fill="url(#gold)" filter="url(#glow)" opacity="0.9"/>
    <polygon points="70,0 86,48 138,48 96,78 112,128 70,98 28,128 44,78 2,48 54,48"
             fill="url(#gold)"/>
  </g>
  <text x="360" y="320" font-family="'Orbitron','Helvetica',sans-serif" font-weight="900"
        font-size="120" letter-spacing="18" fill="#ffffff">PLURSKY</text>
  <text x="362" y="380" font-family="'Orbitron','Helvetica',sans-serif" font-weight="500"
        font-size="28" letter-spacing="8" fill="#f0c040">UNDER THE ELECTRIC SKY</text>
  <text x="362" y="460" font-family="'Inter','Helvetica',sans-serif" font-weight="400"
        font-size="26" fill="rgba(255,255,255,0.72)">Your EDC Las Vegas 2026 companion</text>
  <text x="362" y="498" font-family="'Inter','Helvetica',sans-serif" font-weight="300"
        font-size="22" fill="rgba(255,255,255,0.45)">3D map · Lineup · GPS · AI guide · Offline-first</text>
  <g transform="translate(80 560)">
    <rect x="0" y="0" rx="16" ry="16" width="160" height="42" fill="none" stroke="#f0c040" stroke-width="1.5"/>
    <text x="80" y="28" font-family="'Orbitron','Helvetica',sans-serif" font-weight="700"
          font-size="16" letter-spacing="3" fill="#f0c040" text-anchor="middle">MAY 15–17 · 2026</text>
  </g>
  <text x="1120" y="600" font-family="'Inter','Helvetica',sans-serif" font-weight="500"
        font-size="20" fill="rgba(255,255,255,0.6)" text-anchor="end">plursky.com</text>
</svg>
